<mxfile host="app.diagrams.net" agent="Mozilla/5.0 (Windows NT 10.0; Win64; x64) AppleWebKit/537.36 (KHTML, like Gecko) Chrome/124.0.0.0 Safari/537.36 SLBrowser/9.0.6.2081 SLBChan/33 SLBVPV/64-bit" version="26.1.1">
  <diagram id="R2lEEEUBdFMjLlhIrx00" name="Page-1">
    <mxGraphModel dx="1290" dy="541" grid="1" gridSize="10" guides="1" tooltips="1" connect="1" arrows="1" fold="1" page="1" pageScale="1" pageWidth="850" pageHeight="1100" math="0" shadow="0" extFonts="Permanent Marker^https://fonts.googleapis.com/css?family=Permanent+Marker">
      <root>
        <mxCell id="0" />
        <mxCell id="1" parent="0" />
        <mxCell id="o3hIkskt0hzO8BLV7b24-44" value="" style="group" vertex="1" connectable="0" parent="1">
          <mxGeometry x="20" y="200" width="490" height="160" as="geometry" />
        </mxCell>
        <mxCell id="o3hIkskt0hzO8BLV7b24-26" value="原始数据" style="whiteSpace=wrap;html=1;align=center;" vertex="1" parent="o3hIkskt0hzO8BLV7b24-44">
          <mxGeometry x="230" y="120" width="100" height="40" as="geometry" />
        </mxCell>
        <mxCell id="o3hIkskt0hzO8BLV7b24-27" value="用户id" style="ellipse;whiteSpace=wrap;html=1;align=center;" vertex="1" parent="o3hIkskt0hzO8BLV7b24-44">
          <mxGeometry x="160" width="100" height="40" as="geometry" />
        </mxCell>
        <mxCell id="o3hIkskt0hzO8BLV7b24-28" value="简历id" style="ellipse;whiteSpace=wrap;html=1;align=center;fontStyle=4;" vertex="1" parent="o3hIkskt0hzO8BLV7b24-44">
          <mxGeometry x="50" y="10" width="100" height="40" as="geometry" />
        </mxCell>
        <mxCell id="o3hIkskt0hzO8BLV7b24-29" value="姓名" style="ellipse;whiteSpace=wrap;html=1;align=center;" vertex="1" parent="o3hIkskt0hzO8BLV7b24-44">
          <mxGeometry x="280" width="100" height="40" as="geometry" />
        </mxCell>
        <mxCell id="o3hIkskt0hzO8BLV7b24-30" value="性别" style="ellipse;whiteSpace=wrap;html=1;align=center;" vertex="1" parent="o3hIkskt0hzO8BLV7b24-44">
          <mxGeometry x="390" y="20" width="100" height="40" as="geometry" />
        </mxCell>
        <mxCell id="o3hIkskt0hzO8BLV7b24-31" value="电话" style="ellipse;whiteSpace=wrap;html=1;align=center;" vertex="1" parent="o3hIkskt0hzO8BLV7b24-44">
          <mxGeometry y="60" width="100" height="40" as="geometry" />
        </mxCell>
        <mxCell id="o3hIkskt0hzO8BLV7b24-32" value="邮件" style="ellipse;whiteSpace=wrap;html=1;align=center;" vertex="1" parent="o3hIkskt0hzO8BLV7b24-44">
          <mxGeometry x="50" y="110" width="100" height="40" as="geometry" />
        </mxCell>
        <mxCell id="o3hIkskt0hzO8BLV7b24-36" value="" style="endArrow=none;html=1;rounded=0;exitX=1;exitY=0.5;exitDx=0;exitDy=0;entryX=0;entryY=0.5;entryDx=0;entryDy=0;" edge="1" parent="o3hIkskt0hzO8BLV7b24-44" source="o3hIkskt0hzO8BLV7b24-32" target="o3hIkskt0hzO8BLV7b24-26">
          <mxGeometry relative="1" as="geometry">
            <mxPoint x="400" y="190" as="sourcePoint" />
            <mxPoint x="220" y="150" as="targetPoint" />
          </mxGeometry>
        </mxCell>
        <mxCell id="o3hIkskt0hzO8BLV7b24-38" value="" style="endArrow=none;html=1;rounded=0;exitX=1;exitY=0.5;exitDx=0;exitDy=0;entryX=0;entryY=0.25;entryDx=0;entryDy=0;" edge="1" parent="o3hIkskt0hzO8BLV7b24-44" source="o3hIkskt0hzO8BLV7b24-31" target="o3hIkskt0hzO8BLV7b24-26">
          <mxGeometry relative="1" as="geometry">
            <mxPoint x="180" y="170" as="sourcePoint" />
            <mxPoint x="240" y="150" as="targetPoint" />
          </mxGeometry>
        </mxCell>
        <mxCell id="o3hIkskt0hzO8BLV7b24-40" value="" style="endArrow=none;html=1;rounded=0;exitX=1;exitY=1;exitDx=0;exitDy=0;entryX=0;entryY=0;entryDx=0;entryDy=0;" edge="1" parent="o3hIkskt0hzO8BLV7b24-44" source="o3hIkskt0hzO8BLV7b24-28" target="o3hIkskt0hzO8BLV7b24-26">
          <mxGeometry relative="1" as="geometry">
            <mxPoint x="190" y="180" as="sourcePoint" />
            <mxPoint x="250" y="160" as="targetPoint" />
          </mxGeometry>
        </mxCell>
        <mxCell id="o3hIkskt0hzO8BLV7b24-41" value="" style="endArrow=none;html=1;rounded=0;exitX=0.692;exitY=0.935;exitDx=0;exitDy=0;exitPerimeter=0;" edge="1" parent="o3hIkskt0hzO8BLV7b24-44" source="o3hIkskt0hzO8BLV7b24-27" target="o3hIkskt0hzO8BLV7b24-26">
          <mxGeometry relative="1" as="geometry">
            <mxPoint x="200" y="190" as="sourcePoint" />
            <mxPoint x="260" y="170" as="targetPoint" />
          </mxGeometry>
        </mxCell>
        <mxCell id="o3hIkskt0hzO8BLV7b24-42" value="" style="endArrow=none;html=1;rounded=0;exitX=0.5;exitY=1;exitDx=0;exitDy=0;entryX=0.672;entryY=-0.025;entryDx=0;entryDy=0;entryPerimeter=0;" edge="1" parent="o3hIkskt0hzO8BLV7b24-44" source="o3hIkskt0hzO8BLV7b24-29" target="o3hIkskt0hzO8BLV7b24-26">
          <mxGeometry relative="1" as="geometry">
            <mxPoint x="210" y="200" as="sourcePoint" />
            <mxPoint x="270" y="180" as="targetPoint" />
          </mxGeometry>
        </mxCell>
        <mxCell id="o3hIkskt0hzO8BLV7b24-43" value="" style="endArrow=none;html=1;rounded=0;exitX=1;exitY=0;exitDx=0;exitDy=0;entryX=0;entryY=1;entryDx=0;entryDy=0;" edge="1" parent="o3hIkskt0hzO8BLV7b24-44" source="o3hIkskt0hzO8BLV7b24-26" target="o3hIkskt0hzO8BLV7b24-30">
          <mxGeometry relative="1" as="geometry">
            <mxPoint x="220" y="210" as="sourcePoint" />
            <mxPoint x="280" y="190" as="targetPoint" />
          </mxGeometry>
        </mxCell>
        <mxCell id="o3hIkskt0hzO8BLV7b24-45" value="" style="group" vertex="1" connectable="0" parent="1">
          <mxGeometry y="470" width="490" height="160" as="geometry" />
        </mxCell>
        <mxCell id="o3hIkskt0hzO8BLV7b24-46" value="简历" style="whiteSpace=wrap;html=1;align=center;" vertex="1" parent="o3hIkskt0hzO8BLV7b24-45">
          <mxGeometry x="230" y="120" width="100" height="40" as="geometry" />
        </mxCell>
        <mxCell id="o3hIkskt0hzO8BLV7b24-47" value="用户id" style="ellipse;whiteSpace=wrap;html=1;align=center;" vertex="1" parent="o3hIkskt0hzO8BLV7b24-45">
          <mxGeometry x="160" width="100" height="40" as="geometry" />
        </mxCell>
        <mxCell id="o3hIkskt0hzO8BLV7b24-48" value="简历id" style="ellipse;whiteSpace=wrap;html=1;align=center;fontStyle=4;" vertex="1" parent="o3hIkskt0hzO8BLV7b24-45">
          <mxGeometry x="50" y="10" width="100" height="40" as="geometry" />
        </mxCell>
        <mxCell id="o3hIkskt0hzO8BLV7b24-49" value="姓名" style="ellipse;whiteSpace=wrap;html=1;align=center;" vertex="1" parent="o3hIkskt0hzO8BLV7b24-45">
          <mxGeometry x="280" width="100" height="40" as="geometry" />
        </mxCell>
        <mxCell id="o3hIkskt0hzO8BLV7b24-50" value="性别" style="ellipse;whiteSpace=wrap;html=1;align=center;" vertex="1" parent="o3hIkskt0hzO8BLV7b24-45">
          <mxGeometry x="390" y="20" width="100" height="40" as="geometry" />
        </mxCell>
        <mxCell id="o3hIkskt0hzO8BLV7b24-51" value="电话" style="ellipse;whiteSpace=wrap;html=1;align=center;" vertex="1" parent="o3hIkskt0hzO8BLV7b24-45">
          <mxGeometry y="60" width="100" height="40" as="geometry" />
        </mxCell>
        <mxCell id="o3hIkskt0hzO8BLV7b24-52" value="邮件" style="ellipse;whiteSpace=wrap;html=1;align=center;" vertex="1" parent="o3hIkskt0hzO8BLV7b24-45">
          <mxGeometry x="50" y="110" width="100" height="40" as="geometry" />
        </mxCell>
        <mxCell id="o3hIkskt0hzO8BLV7b24-53" value="" style="endArrow=none;html=1;rounded=0;exitX=1;exitY=0.5;exitDx=0;exitDy=0;entryX=0;entryY=0.5;entryDx=0;entryDy=0;" edge="1" parent="o3hIkskt0hzO8BLV7b24-45" source="o3hIkskt0hzO8BLV7b24-52" target="o3hIkskt0hzO8BLV7b24-46">
          <mxGeometry relative="1" as="geometry">
            <mxPoint x="400" y="190" as="sourcePoint" />
            <mxPoint x="220" y="150" as="targetPoint" />
          </mxGeometry>
        </mxCell>
        <mxCell id="o3hIkskt0hzO8BLV7b24-54" value="" style="endArrow=none;html=1;rounded=0;exitX=1;exitY=0.5;exitDx=0;exitDy=0;entryX=0;entryY=0.25;entryDx=0;entryDy=0;" edge="1" parent="o3hIkskt0hzO8BLV7b24-45" source="o3hIkskt0hzO8BLV7b24-51" target="o3hIkskt0hzO8BLV7b24-46">
          <mxGeometry relative="1" as="geometry">
            <mxPoint x="180" y="170" as="sourcePoint" />
            <mxPoint x="240" y="150" as="targetPoint" />
          </mxGeometry>
        </mxCell>
        <mxCell id="o3hIkskt0hzO8BLV7b24-55" value="" style="endArrow=none;html=1;rounded=0;exitX=1;exitY=1;exitDx=0;exitDy=0;entryX=0;entryY=0;entryDx=0;entryDy=0;" edge="1" parent="o3hIkskt0hzO8BLV7b24-45" source="o3hIkskt0hzO8BLV7b24-48" target="o3hIkskt0hzO8BLV7b24-46">
          <mxGeometry relative="1" as="geometry">
            <mxPoint x="190" y="180" as="sourcePoint" />
            <mxPoint x="250" y="160" as="targetPoint" />
          </mxGeometry>
        </mxCell>
        <mxCell id="o3hIkskt0hzO8BLV7b24-56" value="" style="endArrow=none;html=1;rounded=0;exitX=0.692;exitY=0.935;exitDx=0;exitDy=0;exitPerimeter=0;" edge="1" parent="o3hIkskt0hzO8BLV7b24-45" source="o3hIkskt0hzO8BLV7b24-47" target="o3hIkskt0hzO8BLV7b24-46">
          <mxGeometry relative="1" as="geometry">
            <mxPoint x="200" y="190" as="sourcePoint" />
            <mxPoint x="260" y="170" as="targetPoint" />
          </mxGeometry>
        </mxCell>
        <mxCell id="o3hIkskt0hzO8BLV7b24-57" value="" style="endArrow=none;html=1;rounded=0;exitX=0.5;exitY=1;exitDx=0;exitDy=0;entryX=0.672;entryY=-0.025;entryDx=0;entryDy=0;entryPerimeter=0;" edge="1" parent="o3hIkskt0hzO8BLV7b24-45" source="o3hIkskt0hzO8BLV7b24-49" target="o3hIkskt0hzO8BLV7b24-46">
          <mxGeometry relative="1" as="geometry">
            <mxPoint x="210" y="200" as="sourcePoint" />
            <mxPoint x="270" y="180" as="targetPoint" />
          </mxGeometry>
        </mxCell>
        <mxCell id="o3hIkskt0hzO8BLV7b24-58" value="" style="endArrow=none;html=1;rounded=0;exitX=1;exitY=0;exitDx=0;exitDy=0;entryX=0;entryY=1;entryDx=0;entryDy=0;" edge="1" parent="o3hIkskt0hzO8BLV7b24-45" source="o3hIkskt0hzO8BLV7b24-46" target="o3hIkskt0hzO8BLV7b24-50">
          <mxGeometry relative="1" as="geometry">
            <mxPoint x="220" y="210" as="sourcePoint" />
            <mxPoint x="280" y="190" as="targetPoint" />
          </mxGeometry>
        </mxCell>
        <mxCell id="o3hIkskt0hzO8BLV7b24-59" value="" style="group" vertex="1" connectable="0" parent="1">
          <mxGeometry x="520" y="180" width="490" height="160" as="geometry" />
        </mxCell>
        <mxCell id="o3hIkskt0hzO8BLV7b24-60" value="教育经历" style="whiteSpace=wrap;html=1;align=center;" vertex="1" parent="o3hIkskt0hzO8BLV7b24-59">
          <mxGeometry x="230" y="120" width="100" height="40" as="geometry" />
        </mxCell>
        <mxCell id="o3hIkskt0hzO8BLV7b24-61" value="用户id" style="ellipse;whiteSpace=wrap;html=1;align=center;" vertex="1" parent="o3hIkskt0hzO8BLV7b24-59">
          <mxGeometry x="160" width="100" height="40" as="geometry" />
        </mxCell>
        <mxCell id="o3hIkskt0hzO8BLV7b24-62" value="简历id" style="ellipse;whiteSpace=wrap;html=1;align=center;fontStyle=4;" vertex="1" parent="o3hIkskt0hzO8BLV7b24-59">
          <mxGeometry x="50" y="10" width="100" height="40" as="geometry" />
        </mxCell>
        <mxCell id="o3hIkskt0hzO8BLV7b24-63" value="姓名" style="ellipse;whiteSpace=wrap;html=1;align=center;" vertex="1" parent="o3hIkskt0hzO8BLV7b24-59">
          <mxGeometry x="280" width="100" height="40" as="geometry" />
        </mxCell>
        <mxCell id="o3hIkskt0hzO8BLV7b24-64" value="性别" style="ellipse;whiteSpace=wrap;html=1;align=center;" vertex="1" parent="o3hIkskt0hzO8BLV7b24-59">
          <mxGeometry x="390" y="20" width="100" height="40" as="geometry" />
        </mxCell>
        <mxCell id="o3hIkskt0hzO8BLV7b24-65" value="电话" style="ellipse;whiteSpace=wrap;html=1;align=center;" vertex="1" parent="o3hIkskt0hzO8BLV7b24-59">
          <mxGeometry y="60" width="100" height="40" as="geometry" />
        </mxCell>
        <mxCell id="o3hIkskt0hzO8BLV7b24-66" value="邮件" style="ellipse;whiteSpace=wrap;html=1;align=center;" vertex="1" parent="o3hIkskt0hzO8BLV7b24-59">
          <mxGeometry x="10" y="110" width="100" height="40" as="geometry" />
        </mxCell>
        <mxCell id="o3hIkskt0hzO8BLV7b24-67" value="" style="endArrow=none;html=1;rounded=0;exitX=1;exitY=0.5;exitDx=0;exitDy=0;entryX=0;entryY=0.5;entryDx=0;entryDy=0;" edge="1" parent="o3hIkskt0hzO8BLV7b24-59" source="o3hIkskt0hzO8BLV7b24-66" target="o3hIkskt0hzO8BLV7b24-60">
          <mxGeometry relative="1" as="geometry">
            <mxPoint x="400" y="190" as="sourcePoint" />
            <mxPoint x="220" y="150" as="targetPoint" />
          </mxGeometry>
        </mxCell>
        <mxCell id="o3hIkskt0hzO8BLV7b24-68" value="" style="endArrow=none;html=1;rounded=0;exitX=1;exitY=0.5;exitDx=0;exitDy=0;entryX=0;entryY=0.25;entryDx=0;entryDy=0;" edge="1" parent="o3hIkskt0hzO8BLV7b24-59" source="o3hIkskt0hzO8BLV7b24-65" target="o3hIkskt0hzO8BLV7b24-60">
          <mxGeometry relative="1" as="geometry">
            <mxPoint x="180" y="170" as="sourcePoint" />
            <mxPoint x="240" y="150" as="targetPoint" />
          </mxGeometry>
        </mxCell>
        <mxCell id="o3hIkskt0hzO8BLV7b24-69" value="" style="endArrow=none;html=1;rounded=0;exitX=1;exitY=1;exitDx=0;exitDy=0;entryX=0;entryY=0;entryDx=0;entryDy=0;" edge="1" parent="o3hIkskt0hzO8BLV7b24-59" source="o3hIkskt0hzO8BLV7b24-62" target="o3hIkskt0hzO8BLV7b24-60">
          <mxGeometry relative="1" as="geometry">
            <mxPoint x="190" y="180" as="sourcePoint" />
            <mxPoint x="250" y="160" as="targetPoint" />
          </mxGeometry>
        </mxCell>
        <mxCell id="o3hIkskt0hzO8BLV7b24-70" value="" style="endArrow=none;html=1;rounded=0;exitX=0.692;exitY=0.935;exitDx=0;exitDy=0;exitPerimeter=0;" edge="1" parent="o3hIkskt0hzO8BLV7b24-59" source="o3hIkskt0hzO8BLV7b24-61" target="o3hIkskt0hzO8BLV7b24-60">
          <mxGeometry relative="1" as="geometry">
            <mxPoint x="200" y="190" as="sourcePoint" />
            <mxPoint x="260" y="170" as="targetPoint" />
          </mxGeometry>
        </mxCell>
        <mxCell id="o3hIkskt0hzO8BLV7b24-71" value="" style="endArrow=none;html=1;rounded=0;exitX=0.5;exitY=1;exitDx=0;exitDy=0;entryX=0.672;entryY=-0.025;entryDx=0;entryDy=0;entryPerimeter=0;" edge="1" parent="o3hIkskt0hzO8BLV7b24-59" source="o3hIkskt0hzO8BLV7b24-63" target="o3hIkskt0hzO8BLV7b24-60">
          <mxGeometry relative="1" as="geometry">
            <mxPoint x="210" y="200" as="sourcePoint" />
            <mxPoint x="270" y="180" as="targetPoint" />
          </mxGeometry>
        </mxCell>
        <mxCell id="o3hIkskt0hzO8BLV7b24-72" value="" style="endArrow=none;html=1;rounded=0;exitX=1;exitY=0;exitDx=0;exitDy=0;entryX=0;entryY=1;entryDx=0;entryDy=0;" edge="1" parent="o3hIkskt0hzO8BLV7b24-59" source="o3hIkskt0hzO8BLV7b24-60" target="o3hIkskt0hzO8BLV7b24-64">
          <mxGeometry relative="1" as="geometry">
            <mxPoint x="220" y="210" as="sourcePoint" />
            <mxPoint x="280" y="190" as="targetPoint" />
          </mxGeometry>
        </mxCell>
        <mxCell id="o3hIkskt0hzO8BLV7b24-73" value="" style="group" vertex="1" connectable="0" parent="1">
          <mxGeometry x="510" y="450" width="490" height="160" as="geometry" />
        </mxCell>
        <mxCell id="o3hIkskt0hzO8BLV7b24-74" value="工作经历" style="whiteSpace=wrap;html=1;align=center;" vertex="1" parent="o3hIkskt0hzO8BLV7b24-73">
          <mxGeometry x="230" y="120" width="100" height="40" as="geometry" />
        </mxCell>
        <mxCell id="o3hIkskt0hzO8BLV7b24-75" value="用户id" style="ellipse;whiteSpace=wrap;html=1;align=center;" vertex="1" parent="o3hIkskt0hzO8BLV7b24-73">
          <mxGeometry x="160" width="100" height="40" as="geometry" />
        </mxCell>
        <mxCell id="o3hIkskt0hzO8BLV7b24-76" value="简历id" style="ellipse;whiteSpace=wrap;html=1;align=center;fontStyle=4;" vertex="1" parent="o3hIkskt0hzO8BLV7b24-73">
          <mxGeometry x="50" y="10" width="100" height="40" as="geometry" />
        </mxCell>
        <mxCell id="o3hIkskt0hzO8BLV7b24-77" value="姓名" style="ellipse;whiteSpace=wrap;html=1;align=center;" vertex="1" parent="o3hIkskt0hzO8BLV7b24-73">
          <mxGeometry x="280" width="100" height="40" as="geometry" />
        </mxCell>
        <mxCell id="o3hIkskt0hzO8BLV7b24-78" value="性别" style="ellipse;whiteSpace=wrap;html=1;align=center;" vertex="1" parent="o3hIkskt0hzO8BLV7b24-73">
          <mxGeometry x="390" y="20" width="100" height="40" as="geometry" />
        </mxCell>
        <mxCell id="o3hIkskt0hzO8BLV7b24-79" value="电话" style="ellipse;whiteSpace=wrap;html=1;align=center;" vertex="1" parent="o3hIkskt0hzO8BLV7b24-73">
          <mxGeometry y="60" width="100" height="40" as="geometry" />
        </mxCell>
        <mxCell id="o3hIkskt0hzO8BLV7b24-80" value="邮件" style="ellipse;whiteSpace=wrap;html=1;align=center;" vertex="1" parent="o3hIkskt0hzO8BLV7b24-73">
          <mxGeometry x="50" y="110" width="100" height="40" as="geometry" />
        </mxCell>
        <mxCell id="o3hIkskt0hzO8BLV7b24-81" value="" style="endArrow=none;html=1;rounded=0;exitX=1;exitY=0.5;exitDx=0;exitDy=0;entryX=0;entryY=0.5;entryDx=0;entryDy=0;" edge="1" parent="o3hIkskt0hzO8BLV7b24-73" source="o3hIkskt0hzO8BLV7b24-80" target="o3hIkskt0hzO8BLV7b24-74">
          <mxGeometry relative="1" as="geometry">
            <mxPoint x="400" y="190" as="sourcePoint" />
            <mxPoint x="220" y="150" as="targetPoint" />
          </mxGeometry>
        </mxCell>
        <mxCell id="o3hIkskt0hzO8BLV7b24-82" value="" style="endArrow=none;html=1;rounded=0;exitX=1;exitY=0.5;exitDx=0;exitDy=0;entryX=0;entryY=0.25;entryDx=0;entryDy=0;" edge="1" parent="o3hIkskt0hzO8BLV7b24-73" source="o3hIkskt0hzO8BLV7b24-79" target="o3hIkskt0hzO8BLV7b24-74">
          <mxGeometry relative="1" as="geometry">
            <mxPoint x="180" y="170" as="sourcePoint" />
            <mxPoint x="240" y="150" as="targetPoint" />
          </mxGeometry>
        </mxCell>
        <mxCell id="o3hIkskt0hzO8BLV7b24-83" value="" style="endArrow=none;html=1;rounded=0;exitX=1;exitY=1;exitDx=0;exitDy=0;entryX=0;entryY=0;entryDx=0;entryDy=0;" edge="1" parent="o3hIkskt0hzO8BLV7b24-73" source="o3hIkskt0hzO8BLV7b24-76" target="o3hIkskt0hzO8BLV7b24-74">
          <mxGeometry relative="1" as="geometry">
            <mxPoint x="190" y="180" as="sourcePoint" />
            <mxPoint x="250" y="160" as="targetPoint" />
          </mxGeometry>
        </mxCell>
        <mxCell id="o3hIkskt0hzO8BLV7b24-84" value="" style="endArrow=none;html=1;rounded=0;exitX=0.692;exitY=0.935;exitDx=0;exitDy=0;exitPerimeter=0;" edge="1" parent="o3hIkskt0hzO8BLV7b24-73" source="o3hIkskt0hzO8BLV7b24-75" target="o3hIkskt0hzO8BLV7b24-74">
          <mxGeometry relative="1" as="geometry">
            <mxPoint x="200" y="190" as="sourcePoint" />
            <mxPoint x="260" y="170" as="targetPoint" />
          </mxGeometry>
        </mxCell>
        <mxCell id="o3hIkskt0hzO8BLV7b24-85" value="" style="endArrow=none;html=1;rounded=0;exitX=0.5;exitY=1;exitDx=0;exitDy=0;entryX=0.672;entryY=-0.025;entryDx=0;entryDy=0;entryPerimeter=0;" edge="1" parent="o3hIkskt0hzO8BLV7b24-73" source="o3hIkskt0hzO8BLV7b24-77" target="o3hIkskt0hzO8BLV7b24-74">
          <mxGeometry relative="1" as="geometry">
            <mxPoint x="210" y="200" as="sourcePoint" />
            <mxPoint x="270" y="180" as="targetPoint" />
          </mxGeometry>
        </mxCell>
        <mxCell id="o3hIkskt0hzO8BLV7b24-86" value="" style="endArrow=none;html=1;rounded=0;exitX=1;exitY=0;exitDx=0;exitDy=0;entryX=0;entryY=1;entryDx=0;entryDy=0;" edge="1" parent="o3hIkskt0hzO8BLV7b24-73" source="o3hIkskt0hzO8BLV7b24-74" target="o3hIkskt0hzO8BLV7b24-78">
          <mxGeometry relative="1" as="geometry">
            <mxPoint x="220" y="210" as="sourcePoint" />
            <mxPoint x="280" y="190" as="targetPoint" />
          </mxGeometry>
        </mxCell>
        <mxCell id="o3hIkskt0hzO8BLV7b24-87" value="" style="group" vertex="1" connectable="0" parent="1">
          <mxGeometry x="30" y="760" width="490" height="160" as="geometry" />
        </mxCell>
        <mxCell id="o3hIkskt0hzO8BLV7b24-88" value="实习经历" style="whiteSpace=wrap;html=1;align=center;" vertex="1" parent="o3hIkskt0hzO8BLV7b24-87">
          <mxGeometry x="230" y="120" width="100" height="40" as="geometry" />
        </mxCell>
        <mxCell id="o3hIkskt0hzO8BLV7b24-89" value="用户id" style="ellipse;whiteSpace=wrap;html=1;align=center;" vertex="1" parent="o3hIkskt0hzO8BLV7b24-87">
          <mxGeometry x="160" width="100" height="40" as="geometry" />
        </mxCell>
        <mxCell id="o3hIkskt0hzO8BLV7b24-90" value="简历id" style="ellipse;whiteSpace=wrap;html=1;align=center;fontStyle=4;" vertex="1" parent="o3hIkskt0hzO8BLV7b24-87">
          <mxGeometry x="50" y="10" width="100" height="40" as="geometry" />
        </mxCell>
        <mxCell id="o3hIkskt0hzO8BLV7b24-91" value="姓名" style="ellipse;whiteSpace=wrap;html=1;align=center;" vertex="1" parent="o3hIkskt0hzO8BLV7b24-87">
          <mxGeometry x="280" width="100" height="40" as="geometry" />
        </mxCell>
        <mxCell id="o3hIkskt0hzO8BLV7b24-92" value="性别" style="ellipse;whiteSpace=wrap;html=1;align=center;" vertex="1" parent="o3hIkskt0hzO8BLV7b24-87">
          <mxGeometry x="390" y="20" width="100" height="40" as="geometry" />
        </mxCell>
        <mxCell id="o3hIkskt0hzO8BLV7b24-93" value="电话" style="ellipse;whiteSpace=wrap;html=1;align=center;" vertex="1" parent="o3hIkskt0hzO8BLV7b24-87">
          <mxGeometry y="60" width="100" height="40" as="geometry" />
        </mxCell>
        <mxCell id="o3hIkskt0hzO8BLV7b24-94" value="邮件" style="ellipse;whiteSpace=wrap;html=1;align=center;" vertex="1" parent="o3hIkskt0hzO8BLV7b24-87">
          <mxGeometry x="50" y="110" width="100" height="40" as="geometry" />
        </mxCell>
        <mxCell id="o3hIkskt0hzO8BLV7b24-95" value="" style="endArrow=none;html=1;rounded=0;exitX=1;exitY=0.5;exitDx=0;exitDy=0;entryX=0;entryY=0.5;entryDx=0;entryDy=0;" edge="1" parent="o3hIkskt0hzO8BLV7b24-87" source="o3hIkskt0hzO8BLV7b24-94" target="o3hIkskt0hzO8BLV7b24-88">
          <mxGeometry relative="1" as="geometry">
            <mxPoint x="400" y="190" as="sourcePoint" />
            <mxPoint x="220" y="150" as="targetPoint" />
          </mxGeometry>
        </mxCell>
        <mxCell id="o3hIkskt0hzO8BLV7b24-96" value="" style="endArrow=none;html=1;rounded=0;exitX=1;exitY=0.5;exitDx=0;exitDy=0;entryX=0;entryY=0.25;entryDx=0;entryDy=0;" edge="1" parent="o3hIkskt0hzO8BLV7b24-87" source="o3hIkskt0hzO8BLV7b24-93" target="o3hIkskt0hzO8BLV7b24-88">
          <mxGeometry relative="1" as="geometry">
            <mxPoint x="180" y="170" as="sourcePoint" />
            <mxPoint x="240" y="150" as="targetPoint" />
          </mxGeometry>
        </mxCell>
        <mxCell id="o3hIkskt0hzO8BLV7b24-97" value="" style="endArrow=none;html=1;rounded=0;exitX=1;exitY=1;exitDx=0;exitDy=0;entryX=0;entryY=0;entryDx=0;entryDy=0;" edge="1" parent="o3hIkskt0hzO8BLV7b24-87" source="o3hIkskt0hzO8BLV7b24-90" target="o3hIkskt0hzO8BLV7b24-88">
          <mxGeometry relative="1" as="geometry">
            <mxPoint x="190" y="180" as="sourcePoint" />
            <mxPoint x="250" y="160" as="targetPoint" />
          </mxGeometry>
        </mxCell>
        <mxCell id="o3hIkskt0hzO8BLV7b24-98" value="" style="endArrow=none;html=1;rounded=0;exitX=0.692;exitY=0.935;exitDx=0;exitDy=0;exitPerimeter=0;" edge="1" parent="o3hIkskt0hzO8BLV7b24-87" source="o3hIkskt0hzO8BLV7b24-89" target="o3hIkskt0hzO8BLV7b24-88">
          <mxGeometry relative="1" as="geometry">
            <mxPoint x="200" y="190" as="sourcePoint" />
            <mxPoint x="260" y="170" as="targetPoint" />
          </mxGeometry>
        </mxCell>
        <mxCell id="o3hIkskt0hzO8BLV7b24-99" value="" style="endArrow=none;html=1;rounded=0;exitX=0.5;exitY=1;exitDx=0;exitDy=0;entryX=0.672;entryY=-0.025;entryDx=0;entryDy=0;entryPerimeter=0;" edge="1" parent="o3hIkskt0hzO8BLV7b24-87" source="o3hIkskt0hzO8BLV7b24-91" target="o3hIkskt0hzO8BLV7b24-88">
          <mxGeometry relative="1" as="geometry">
            <mxPoint x="210" y="200" as="sourcePoint" />
            <mxPoint x="270" y="180" as="targetPoint" />
          </mxGeometry>
        </mxCell>
        <mxCell id="o3hIkskt0hzO8BLV7b24-100" value="" style="endArrow=none;html=1;rounded=0;exitX=1;exitY=0;exitDx=0;exitDy=0;entryX=0;entryY=1;entryDx=0;entryDy=0;" edge="1" parent="o3hIkskt0hzO8BLV7b24-87" source="o3hIkskt0hzO8BLV7b24-88" target="o3hIkskt0hzO8BLV7b24-92">
          <mxGeometry relative="1" as="geometry">
            <mxPoint x="220" y="210" as="sourcePoint" />
            <mxPoint x="280" y="190" as="targetPoint" />
          </mxGeometry>
        </mxCell>
        <mxCell id="o3hIkskt0hzO8BLV7b24-101" value="" style="group" vertex="1" connectable="0" parent="1">
          <mxGeometry x="620" y="700" width="490" height="160" as="geometry" />
        </mxCell>
        <mxCell id="o3hIkskt0hzO8BLV7b24-102" value="项目经历" style="whiteSpace=wrap;html=1;align=center;" vertex="1" parent="o3hIkskt0hzO8BLV7b24-101">
          <mxGeometry x="230" y="120" width="100" height="40" as="geometry" />
        </mxCell>
        <mxCell id="o3hIkskt0hzO8BLV7b24-103" value="用户id" style="ellipse;whiteSpace=wrap;html=1;align=center;" vertex="1" parent="o3hIkskt0hzO8BLV7b24-101">
          <mxGeometry x="160" width="100" height="40" as="geometry" />
        </mxCell>
        <mxCell id="o3hIkskt0hzO8BLV7b24-104" value="简历id" style="ellipse;whiteSpace=wrap;html=1;align=center;fontStyle=4;" vertex="1" parent="o3hIkskt0hzO8BLV7b24-101">
          <mxGeometry x="50" y="10" width="100" height="40" as="geometry" />
        </mxCell>
        <mxCell id="o3hIkskt0hzO8BLV7b24-105" value="姓名" style="ellipse;whiteSpace=wrap;html=1;align=center;" vertex="1" parent="o3hIkskt0hzO8BLV7b24-101">
          <mxGeometry x="280" width="100" height="40" as="geometry" />
        </mxCell>
        <mxCell id="o3hIkskt0hzO8BLV7b24-106" value="性别" style="ellipse;whiteSpace=wrap;html=1;align=center;" vertex="1" parent="o3hIkskt0hzO8BLV7b24-101">
          <mxGeometry x="390" y="20" width="100" height="40" as="geometry" />
        </mxCell>
        <mxCell id="o3hIkskt0hzO8BLV7b24-107" value="电话" style="ellipse;whiteSpace=wrap;html=1;align=center;" vertex="1" parent="o3hIkskt0hzO8BLV7b24-101">
          <mxGeometry y="60" width="100" height="40" as="geometry" />
        </mxCell>
        <mxCell id="o3hIkskt0hzO8BLV7b24-108" value="邮件" style="ellipse;whiteSpace=wrap;html=1;align=center;" vertex="1" parent="o3hIkskt0hzO8BLV7b24-101">
          <mxGeometry x="50" y="110" width="100" height="40" as="geometry" />
        </mxCell>
        <mxCell id="o3hIkskt0hzO8BLV7b24-109" value="" style="endArrow=none;html=1;rounded=0;exitX=1;exitY=0.5;exitDx=0;exitDy=0;entryX=0;entryY=0.5;entryDx=0;entryDy=0;" edge="1" parent="o3hIkskt0hzO8BLV7b24-101" source="o3hIkskt0hzO8BLV7b24-108" target="o3hIkskt0hzO8BLV7b24-102">
          <mxGeometry relative="1" as="geometry">
            <mxPoint x="400" y="190" as="sourcePoint" />
            <mxPoint x="220" y="150" as="targetPoint" />
          </mxGeometry>
        </mxCell>
        <mxCell id="o3hIkskt0hzO8BLV7b24-110" value="" style="endArrow=none;html=1;rounded=0;exitX=1;exitY=0.5;exitDx=0;exitDy=0;entryX=0;entryY=0.25;entryDx=0;entryDy=0;" edge="1" parent="o3hIkskt0hzO8BLV7b24-101" source="o3hIkskt0hzO8BLV7b24-107" target="o3hIkskt0hzO8BLV7b24-102">
          <mxGeometry relative="1" as="geometry">
            <mxPoint x="180" y="170" as="sourcePoint" />
            <mxPoint x="240" y="150" as="targetPoint" />
          </mxGeometry>
        </mxCell>
        <mxCell id="o3hIkskt0hzO8BLV7b24-111" value="" style="endArrow=none;html=1;rounded=0;exitX=1;exitY=1;exitDx=0;exitDy=0;entryX=0;entryY=0;entryDx=0;entryDy=0;" edge="1" parent="o3hIkskt0hzO8BLV7b24-101" source="o3hIkskt0hzO8BLV7b24-104" target="o3hIkskt0hzO8BLV7b24-102">
          <mxGeometry relative="1" as="geometry">
            <mxPoint x="190" y="180" as="sourcePoint" />
            <mxPoint x="250" y="160" as="targetPoint" />
          </mxGeometry>
        </mxCell>
        <mxCell id="o3hIkskt0hzO8BLV7b24-112" value="" style="endArrow=none;html=1;rounded=0;exitX=0.692;exitY=0.935;exitDx=0;exitDy=0;exitPerimeter=0;" edge="1" parent="o3hIkskt0hzO8BLV7b24-101" source="o3hIkskt0hzO8BLV7b24-103" target="o3hIkskt0hzO8BLV7b24-102">
          <mxGeometry relative="1" as="geometry">
            <mxPoint x="200" y="190" as="sourcePoint" />
            <mxPoint x="260" y="170" as="targetPoint" />
          </mxGeometry>
        </mxCell>
        <mxCell id="o3hIkskt0hzO8BLV7b24-113" value="" style="endArrow=none;html=1;rounded=0;exitX=0.5;exitY=1;exitDx=0;exitDy=0;entryX=0.672;entryY=-0.025;entryDx=0;entryDy=0;entryPerimeter=0;" edge="1" parent="o3hIkskt0hzO8BLV7b24-101" source="o3hIkskt0hzO8BLV7b24-105" target="o3hIkskt0hzO8BLV7b24-102">
          <mxGeometry relative="1" as="geometry">
            <mxPoint x="210" y="200" as="sourcePoint" />
            <mxPoint x="270" y="180" as="targetPoint" />
          </mxGeometry>
        </mxCell>
        <mxCell id="o3hIkskt0hzO8BLV7b24-114" value="" style="endArrow=none;html=1;rounded=0;exitX=1;exitY=0;exitDx=0;exitDy=0;entryX=0;entryY=1;entryDx=0;entryDy=0;" edge="1" parent="o3hIkskt0hzO8BLV7b24-101" source="o3hIkskt0hzO8BLV7b24-102" target="o3hIkskt0hzO8BLV7b24-106">
          <mxGeometry relative="1" as="geometry">
            <mxPoint x="220" y="210" as="sourcePoint" />
            <mxPoint x="280" y="190" as="targetPoint" />
          </mxGeometry>
        </mxCell>
      </root>
    </mxGraphModel>
  </diagram>
</mxfile>
